<svg width="173" height="55" viewBox="0 0 173 55" fill="none" xmlns="http://www.w3.org/2000/svg">
<path d="M62.2901 44.1975C62.3131 44.1544 62.3269 44.1044 62.3361 44.0408C62.3476 43.9794 62.3545 43.9022 62.3545 43.8136C62.3545 43.7272 62.3476 43.6522 62.3361 43.5864C62.3269 43.5205 62.3154 43.4682 62.2901 43.4228C62.2717 43.3819 62.2418 43.3501 62.2142 43.3364C62.1843 43.3205 62.1521 43.3092 62.1085 43.3092H55.8574C55.8206 43.3092 55.7884 43.3205 55.7585 43.3364C55.7241 43.3501 55.7011 43.3819 55.6827 43.4228C55.6643 43.4682 55.6505 43.5205 55.639 43.5864C55.6275 43.6522 55.6206 43.7295 55.6206 43.8136C55.6206 43.9022 55.6275 43.9794 55.639 44.0408C55.6505 44.1067 55.6666 44.1544 55.6827 44.1975C55.7011 44.2339 55.7241 44.2634 55.7585 44.2839C55.7884 44.302 55.8206 44.3089 55.8574 44.3089H58.3863V52.0201C58.3863 52.0564 58.3955 52.086 58.4139 52.1155C58.4346 52.145 58.4691 52.1632 58.5105 52.1791C58.5588 52.1973 58.6208 52.2109 58.699 52.2223C58.7795 52.2314 58.876 52.2405 58.9864 52.2405C59.1013 52.2405 59.1956 52.2314 59.2715 52.2223C59.3496 52.2109 59.4117 52.1973 59.4531 52.1791C59.5014 52.1632 59.5335 52.145 59.5496 52.1155C59.5726 52.0882 59.5795 52.0564 59.5795 52.0201V44.3089H62.1062C62.1476 44.3089 62.182 44.3043 62.2119 44.2839C62.2418 44.2657 62.2717 44.2362 62.2901 44.1975Z" fill="#706F6F"/>
<path d="M67.2998 46.3946C67.0767 46.1333 66.794 45.922 66.4514 45.7675C66.1043 45.6085 65.6835 45.5335 65.1938 45.5335C64.734 45.5335 64.3202 45.6107 63.9478 45.7698C63.5776 45.9265 63.2604 46.1492 63.0029 46.4491C62.7385 46.7422 62.5385 47.1057 62.4005 47.526C62.2603 47.9532 62.1936 48.4303 62.1936 48.9619C62.1936 49.5186 62.2557 50.0093 62.3936 50.4297C62.5247 50.8477 62.7247 51.1999 62.9914 51.4816C63.2581 51.7565 63.5822 51.9724 63.9662 52.1132C64.3524 52.2564 64.803 52.3245 65.3203 52.3245C65.6169 52.3245 65.8973 52.3041 66.1548 52.2609C66.4192 52.2155 66.6491 52.1678 66.8514 52.1132C67.0492 52.0564 67.2078 52.0042 67.3365 51.9451C67.463 51.8883 67.5343 51.8474 67.5641 51.8201C67.5871 51.7952 67.6055 51.7656 67.6193 51.7406C67.6377 51.7134 67.6492 51.6838 67.6584 51.6497C67.6653 51.6134 67.6676 51.5748 67.6699 51.5271C67.6768 51.4862 67.6814 51.4339 67.6814 51.3748C67.6814 51.293 67.6745 51.2226 67.6699 51.1681C67.663 51.109 67.6515 51.0636 67.6377 51.0318C67.6216 50.9977 67.6055 50.9727 67.5779 50.9568C67.5549 50.9409 67.5228 50.9363 67.4929 50.9363C67.4331 50.9363 67.3526 50.9568 67.2469 51.0068C67.1319 51.0567 66.9917 51.109 66.8216 51.1681C66.656 51.2294 66.4514 51.2817 66.2192 51.3271C65.9916 51.3748 65.7249 51.3975 65.426 51.3975C65.0444 51.3975 64.7294 51.3498 64.4673 51.243C64.2099 51.1385 63.996 50.9863 63.8328 50.7886C63.6673 50.591 63.5546 50.357 63.4811 50.0843C63.4144 49.8049 63.3753 49.5004 63.3753 49.1573H67.4952C67.6124 49.1573 67.7182 49.1187 67.8032 49.0437C67.8998 48.971 67.9435 48.8393 67.9435 48.6643V48.4553C67.9435 48.0531 67.886 47.676 67.7871 47.3216C67.686 46.9671 67.5228 46.6559 67.2998 46.3946ZM63.3799 48.3281C63.3914 48.0759 63.4374 47.8396 63.5155 47.6033C63.5937 47.3715 63.7087 47.1716 63.8512 46.9944C63.996 46.824 64.1731 46.6854 64.3892 46.5763C64.6053 46.4718 64.8536 46.4196 65.1387 46.4196C65.6904 46.4196 66.1112 46.59 66.3939 46.9239C66.6721 47.2648 66.8101 47.7328 66.7963 48.3258L63.3799 48.3281Z" fill="#706F6F"/>
<path d="M74.5003 50.6819C74.4819 50.6387 74.4658 50.6046 74.4383 50.5887C74.4199 50.5705 74.3877 50.5592 74.3578 50.5592C74.3072 50.5592 74.2267 50.6001 74.1233 50.6819C74.0244 50.7614 73.9003 50.8477 73.7577 50.9477C73.6106 51.0454 73.4405 51.1385 73.2405 51.2181C73.0404 51.2976 72.8082 51.343 72.5439 51.343C72.2657 51.343 72.0197 51.2953 71.8059 51.1953C71.5898 51.0977 71.4035 50.9454 71.2541 50.7478C71.1116 50.5433 70.9966 50.2934 70.9253 49.9934C70.8472 49.6935 70.8058 49.3482 70.8058 48.9506C70.8058 48.1463 70.9552 47.5419 71.2472 47.1216C71.5415 46.7013 71.9668 46.4945 72.5209 46.4945C72.7876 46.4945 73.0221 46.5286 73.2198 46.6081C73.4152 46.6854 73.5853 46.7672 73.721 46.8581C73.8612 46.9512 73.9761 47.0353 74.0635 47.1125C74.1578 47.1875 74.2382 47.2261 74.3095 47.2261C74.367 47.2261 74.4176 47.1898 74.4589 47.1216C74.5003 47.0444 74.5233 46.924 74.5233 46.7422C74.5233 46.6581 74.5164 46.5922 74.5164 46.5377C74.5141 46.4809 74.5003 46.4309 74.4865 46.3923C74.475 46.3469 74.4566 46.3082 74.4337 46.2787C74.413 46.2469 74.3762 46.1992 74.321 46.1447C74.2635 46.0947 74.1762 46.0265 74.0543 45.947C73.9348 45.872 73.7945 45.8016 73.6313 45.7402C73.475 45.6812 73.3048 45.6335 73.1186 45.5948C72.9255 45.5607 72.7347 45.5426 72.537 45.5426C72.1254 45.5426 71.7415 45.6085 71.3874 45.7425C71.0334 45.8766 70.7207 46.0856 70.4632 46.3628C70.2034 46.6422 69.9919 46.9989 69.8425 47.4374C69.6931 47.8782 69.6172 48.4008 69.6172 49.0097C69.6172 49.5413 69.6816 50.0184 69.8034 50.4274C69.923 50.8364 70.1023 51.1817 70.3391 51.4657C70.5736 51.7474 70.861 51.961 71.2058 52.1042C71.5576 52.2541 71.9553 52.3245 72.4059 52.3245C72.622 52.3245 72.8289 52.3041 73.0358 52.2632C73.2382 52.2246 73.429 52.1678 73.606 52.1042C73.7761 52.0383 73.9325 51.9656 74.0704 51.8792C74.2083 51.7929 74.3095 51.7225 74.367 51.6679C74.4245 51.6089 74.4589 51.5657 74.475 51.5316C74.4888 51.5021 74.5049 51.4703 74.5164 51.4271C74.5279 51.3885 74.5371 51.3453 74.5394 51.284C74.5463 51.2294 74.5463 51.159 74.5463 51.0817C74.5463 50.9886 74.5463 50.9136 74.5371 50.8477C74.5279 50.7796 74.5141 50.725 74.5003 50.6819Z" fill="#706F6F"/>
<path d="M81.317 46.3014C81.1376 46.0674 80.9077 45.8811 80.6204 45.7425C80.3376 45.6016 79.9881 45.5335 79.5697 45.5335C79.2133 45.5335 78.857 45.6221 78.5098 45.8038C78.1627 45.9856 77.8086 46.2696 77.4569 46.6559V45.8402C77.4569 45.8038 77.4477 45.7743 77.4339 45.7493C77.4155 45.7243 77.3879 45.7016 77.3488 45.6834C77.3143 45.663 77.2615 45.6471 77.1948 45.6425C77.1258 45.6334 77.0431 45.6334 76.9419 45.6334C76.8315 45.6334 76.7465 45.6334 76.6844 45.6425C76.6154 45.6493 76.5672 45.663 76.5258 45.6834C76.4844 45.7016 76.4545 45.7243 76.4384 45.7493C76.4269 45.7743 76.4177 45.8038 76.4177 45.8402V52.0269C76.4177 52.061 76.4292 52.0905 76.4453 52.1155C76.4614 52.145 76.4913 52.1655 76.535 52.1837C76.5764 52.2018 76.6361 52.2132 76.7143 52.2246C76.7856 52.2314 76.8798 52.2382 76.9879 52.2382C77.1051 52.2382 77.2017 52.2314 77.2753 52.2246C77.3465 52.2132 77.404 52.1996 77.45 52.1837C77.4914 52.1655 77.519 52.145 77.5419 52.1155C77.5557 52.0905 77.5649 52.061 77.5649 52.0269V47.7033C77.8799 47.3147 78.1834 47.0194 78.4685 46.8194C78.7558 46.6172 79.0409 46.5173 79.3329 46.5173C79.5513 46.5173 79.7467 46.5559 79.9191 46.6422C80.087 46.7217 80.2249 46.8444 80.333 46.9967C80.4387 47.1534 80.5192 47.3397 80.5744 47.5533C80.6318 47.7714 80.6571 48.0509 80.6571 48.4053V52.0292C80.6571 52.0632 80.664 52.0928 80.687 52.1178C80.7031 52.1473 80.7353 52.1678 80.7767 52.1859C80.8181 52.2041 80.8755 52.2155 80.9537 52.2268C81.0227 52.2336 81.1192 52.2405 81.2365 52.2405C81.3468 52.2405 81.4411 52.2336 81.5147 52.2268C81.5859 52.2155 81.6434 52.2018 81.6848 52.1859C81.7262 52.1678 81.7561 52.1473 81.7745 52.1178C81.7952 52.0928 81.802 52.0632 81.802 52.0292V48.2576C81.802 47.8169 81.7676 47.4397 81.6894 47.1262C81.6181 46.8126 81.4963 46.5377 81.317 46.3014Z" fill="#706F6F"/>
<path d="M89.3105 46.4195C89.0553 46.131 88.7358 45.9106 88.3564 45.7607C87.9725 45.6084 87.5265 45.5357 87.0115 45.5357C86.4804 45.5357 86.016 45.6198 85.616 45.7879C85.216 45.9561 84.8803 46.1969 84.6136 46.5013C84.3469 46.8081 84.1515 47.1739 84.0205 47.5987C83.8848 48.019 83.8228 48.4848 83.8228 48.9892C83.8228 49.5095 83.8825 49.9775 84.009 50.3888C84.1354 50.8045 84.3239 51.1544 84.5791 51.4407C84.8343 51.7293 85.1516 51.9496 85.5355 52.1019C85.9172 52.2518 86.3655 52.3245 86.8805 52.3245C87.4092 52.3245 87.8713 52.2427 88.2737 52.0701C88.6737 51.8996 89.0071 51.6565 89.2738 51.3476C89.5404 51.0408 89.7428 50.6796 89.8761 50.2547C90.0117 49.8344 90.0761 49.3686 90.0761 48.8642C90.0761 48.3462 90.014 47.8805 89.883 47.4692C89.7565 47.058 89.568 46.7081 89.3105 46.4195ZM88.7749 49.9207C88.699 50.2206 88.5817 50.4751 88.4231 50.6955C88.2645 50.9068 88.0599 51.0749 87.8116 51.1931C87.5656 51.3135 87.2736 51.3703 86.9356 51.3703C86.5678 51.3703 86.2574 51.3067 86.0137 51.1771C85.7608 51.0476 85.5631 50.8682 85.4206 50.6478C85.2711 50.4274 85.1677 50.1684 85.1033 49.8639C85.0412 49.5686 85.0068 49.2505 85.0068 48.9142C85.0068 48.5598 85.0481 48.2349 85.124 47.9373C85.2022 47.6442 85.3194 47.3829 85.4781 47.167C85.639 46.9467 85.8413 46.7831 86.0827 46.6558C86.331 46.54 86.623 46.4786 86.9678 46.4786C87.3334 46.4786 87.6437 46.5445 87.892 46.6763C88.138 46.8058 88.3335 46.983 88.4783 47.2079C88.6254 47.4329 88.7266 47.6942 88.7933 47.9872C88.853 48.2849 88.8898 48.603 88.8898 48.9392C88.8898 49.2982 88.8507 49.6254 88.7749 49.9207Z" fill="#706F6F"/>
<path d="M93.1501 42.6821C93.1041 42.6639 93.0512 42.6503 92.9754 42.6412C92.8995 42.6344 92.8029 42.6321 92.6903 42.6321C92.5753 42.6321 92.4857 42.6344 92.4144 42.6412C92.3385 42.6503 92.2765 42.6662 92.2351 42.6821C92.1914 42.7025 92.1638 42.723 92.1454 42.7503C92.127 42.7775 92.1201 42.8139 92.1201 42.848V52.0269C92.1201 52.061 92.127 52.0905 92.1454 52.1155C92.1638 52.145 92.1914 52.1655 92.2351 52.1837C92.2765 52.2018 92.3408 52.2132 92.4144 52.2246C92.4857 52.2314 92.5753 52.2382 92.6903 52.2382C92.8029 52.2382 92.8995 52.2314 92.9754 52.2246C93.0512 52.2132 93.1041 52.1996 93.1501 52.1837C93.1892 52.1655 93.2191 52.145 93.2397 52.1155C93.2581 52.0905 93.2673 52.061 93.2673 52.0269V42.848C93.2673 42.8116 93.2581 42.7775 93.2397 42.7503C93.2191 42.723 93.1892 42.7025 93.1501 42.6821Z" fill="#706F6F"/>
<path d="M100.797 46.4195C100.541 46.131 100.222 45.9106 99.8379 45.7607C99.4562 45.6084 99.0102 45.5357 98.493 45.5357C97.9596 45.5357 97.4929 45.6198 97.0951 45.7879C96.6997 45.9561 96.3663 46.1969 96.0997 46.5013C95.8353 46.8081 95.6376 47.1739 95.4996 47.5987C95.3709 48.019 95.3042 48.4848 95.3042 48.9892C95.3042 49.5095 95.364 49.9775 95.4904 50.3888C95.6192 50.8045 95.8077 51.1544 96.0629 51.4407C96.3158 51.7293 96.633 51.9496 97.017 52.1019C97.3986 52.2518 97.8469 52.3245 98.3619 52.3245C98.893 52.3245 99.3551 52.2427 99.7574 52.0701C100.157 51.8996 100.493 51.6565 100.76 51.3476C101.026 51.0408 101.227 50.6796 101.362 50.2547C101.493 49.8344 101.562 49.3686 101.562 48.8642C101.562 48.3462 101.495 47.8805 101.369 47.4692C101.245 47.058 101.052 46.7081 100.797 46.4195ZM100.261 49.9207C100.185 50.2206 100.072 50.4751 99.9092 50.6955C99.7505 50.9068 99.5459 51.0749 99.2999 51.1931C99.0539 51.3135 98.7596 51.3703 98.4217 51.3703C98.0515 51.3703 97.7458 51.3067 97.4975 51.1771C97.2515 51.0476 97.0538 50.8682 96.9066 50.6478C96.7595 50.4274 96.6514 50.1684 96.5894 49.8639C96.525 49.5686 96.4951 49.2505 96.4951 48.9142C96.4951 48.5598 96.5342 48.2349 96.6123 47.9373C96.6905 47.6442 96.8078 47.3829 96.9664 47.167C97.1227 46.9467 97.325 46.7831 97.5733 46.6558C97.8193 46.54 98.1159 46.4786 98.4516 46.4786C98.824 46.4786 99.1298 46.5445 99.3781 46.6763C99.6241 46.8058 99.8218 46.983 99.9666 47.2079C100.111 47.4329 100.215 47.6942 100.282 47.9872C100.341 48.2849 100.371 48.603 100.371 48.9392C100.371 49.2982 100.334 49.6254 100.261 49.9207Z" fill="#706F6F"/>
<path d="M108.595 45.6653H106.705C106.565 45.6266 106.409 45.6016 106.243 45.5767C106.077 45.5608 105.9 45.5471 105.712 45.5471C105.358 45.5471 105.036 45.6016 104.733 45.7039C104.436 45.8061 104.178 45.9515 103.967 46.1447C103.753 46.3355 103.585 46.5786 103.466 46.8558C103.344 47.1353 103.282 47.4465 103.282 47.801C103.282 48.1009 103.323 48.3599 103.408 48.5734C103.496 48.7893 103.608 48.9801 103.746 49.1483C103.578 49.3209 103.434 49.5186 103.314 49.739C103.201 49.9548 103.142 50.2048 103.142 50.4888C103.142 50.691 103.199 50.8795 103.307 51.0499C103.415 51.2249 103.583 51.368 103.808 51.4862C103.664 51.5975 103.532 51.7156 103.42 51.8292C103.305 51.9474 103.208 52.0723 103.135 52.1996C103.057 52.3268 102.999 52.4609 102.967 52.6017C102.926 52.7449 102.909 52.8903 102.909 53.0402C102.909 53.2788 102.958 53.4992 103.061 53.7059C103.16 53.9081 103.328 54.0854 103.551 54.2285C103.778 54.3739 104.073 54.4943 104.424 54.5761C104.779 54.6624 105.213 54.7033 105.717 54.7033C106.238 54.7033 106.694 54.6465 107.082 54.5352C107.462 54.4216 107.779 54.2671 108.027 54.0763C108.275 53.8786 108.459 53.6537 108.581 53.3992C108.701 53.1425 108.758 52.8744 108.758 52.5858C108.758 52.3177 108.705 52.0792 108.6 51.877C108.491 51.6725 108.347 51.4998 108.158 51.3589C107.963 51.2226 107.737 51.1158 107.482 51.0386C107.22 50.9613 106.937 50.9204 106.627 50.9113L104.99 50.8477C104.737 50.8364 104.542 50.7773 104.39 50.6728C104.241 50.5683 104.165 50.432 104.165 50.2752C104.165 50.1366 104.192 50.0184 104.245 49.9071C104.296 49.8049 104.362 49.7094 104.45 49.6277C104.574 49.7299 104.753 49.814 104.981 49.8776C105.211 49.9457 105.452 49.9775 105.707 49.9775C106.066 49.9775 106.397 49.9253 106.694 49.8276C106.99 49.7231 107.245 49.5845 107.459 49.3914C107.68 49.2005 107.843 48.9665 107.96 48.6961C108.075 48.4189 108.131 48.1031 108.131 47.7464C108.131 47.5329 108.098 47.3261 108.032 47.1262C107.972 46.9262 107.857 46.7445 107.691 46.5809H108.588C108.657 46.5809 108.714 46.5491 108.756 46.4741C108.802 46.4037 108.825 46.2901 108.825 46.1265C108.825 45.972 108.804 45.8584 108.765 45.7811C108.733 45.7016 108.673 45.6653 108.595 45.6653ZM104.181 52.37C104.238 52.2768 104.314 52.1769 104.408 52.0769C104.505 51.9747 104.625 51.8633 104.772 51.7497L106.392 51.8065C106.769 51.8133 107.066 51.8906 107.284 52.036C107.505 52.1769 107.618 52.3836 107.618 52.6472C107.618 52.8017 107.586 52.9539 107.521 53.0925C107.459 53.2356 107.356 53.3583 107.211 53.4719C107.071 53.581 106.882 53.6741 106.648 53.7355C106.413 53.8013 106.119 53.8354 105.774 53.8354C105.225 53.8354 104.802 53.7582 104.496 53.6037C104.185 53.4492 104.036 53.2243 104.036 52.9266C104.036 52.8312 104.045 52.7335 104.066 52.6449C104.091 52.5563 104.13 52.4654 104.181 52.37ZM106.958 48.2667C106.91 48.4326 106.827 48.5757 106.714 48.7052C106.606 48.8279 106.468 48.9279 106.3 48.9983C106.135 49.0687 105.937 49.1074 105.712 49.1074C105.289 49.1074 104.962 48.9892 104.723 48.7552C104.496 48.5235 104.376 48.2008 104.376 47.7919C104.376 47.6078 104.406 47.4329 104.454 47.2693C104.512 47.1012 104.592 46.9512 104.7 46.824C104.808 46.6968 104.946 46.5968 105.112 46.5195C105.273 46.4491 105.468 46.4128 105.691 46.4128C106.121 46.4128 106.455 46.5309 106.687 46.7695C106.921 47.0012 107.038 47.3329 107.038 47.7532C107.038 47.9282 107.015 48.1009 106.958 48.2667Z" fill="#706F6F"/>
<path d="M111.689 45.6857C111.65 45.6652 111.591 45.6516 111.515 45.6471C111.439 45.6312 111.347 45.6312 111.23 45.6312C111.119 45.6312 111.027 45.6312 110.954 45.6471C110.882 45.6516 110.818 45.6652 110.774 45.6857C110.733 45.7016 110.699 45.7289 110.685 45.7516C110.669 45.7788 110.664 45.8084 110.664 45.8402V52.0269C110.664 52.061 110.671 52.0905 110.685 52.1155C110.699 52.145 110.733 52.1655 110.774 52.1837C110.82 52.2018 110.882 52.2132 110.954 52.2246C111.03 52.2314 111.119 52.2382 111.23 52.2382C111.347 52.2382 111.439 52.2314 111.515 52.2246C111.591 52.2132 111.65 52.1996 111.689 52.1837C111.731 52.1655 111.761 52.145 111.779 52.1155C111.797 52.0905 111.807 52.061 111.807 52.0269V45.8402C111.807 45.8107 111.797 45.7811 111.779 45.7516C111.763 45.7289 111.731 45.7016 111.689 45.6857Z" fill="#706F6F"/>
<path d="M111.236 43.082C110.963 43.082 110.774 43.1297 110.676 43.2251C110.574 43.3228 110.521 43.5046 110.521 43.7704C110.521 44.0294 110.572 44.2043 110.671 44.3066C110.77 44.3975 110.954 44.4452 111.223 44.4452C111.496 44.4452 111.685 44.3952 111.784 44.2975C111.887 44.2021 111.94 44.0226 111.94 43.7568C111.94 43.4955 111.889 43.3183 111.791 43.2251C111.689 43.1297 111.505 43.082 111.236 43.082Z" fill="#706F6F"/>
<path d="M118.444 46.131C118.246 45.9334 117.991 45.7879 117.676 45.6857C117.363 45.5835 116.979 45.5335 116.527 45.5335C116.287 45.5335 116.051 45.5539 115.816 45.5994C115.579 45.6403 115.361 45.6971 115.159 45.7607C114.961 45.8266 114.784 45.8993 114.63 45.9765C114.478 46.0651 114.365 46.131 114.31 46.1878C114.248 46.2492 114.209 46.3128 114.191 46.3764C114.177 46.4423 114.168 46.5332 114.168 46.6536C114.168 46.7195 114.175 46.7808 114.184 46.8399C114.193 46.8967 114.207 46.9444 114.228 46.983C114.248 47.0194 114.274 47.0466 114.299 47.0625C114.329 47.0784 114.359 47.0898 114.395 47.0898C114.455 47.0898 114.54 47.0557 114.651 46.9944C114.761 46.9239 114.906 46.8535 115.076 46.7717C115.244 46.6945 115.441 46.6218 115.664 46.5513C115.892 46.49 116.145 46.4536 116.428 46.4536C116.692 46.4536 116.911 46.4855 117.094 46.5468C117.278 46.6104 117.421 46.7036 117.536 46.8263C117.653 46.9421 117.734 47.0966 117.782 47.2784C117.837 47.4624 117.858 47.6737 117.858 47.9123V48.3917H117C116.513 48.3917 116.074 48.4326 115.685 48.5189C115.294 48.6052 114.968 48.7302 114.699 48.9029C114.432 49.071 114.225 49.2868 114.08 49.5413C113.94 49.7958 113.869 50.098 113.869 50.4478C113.869 50.7455 113.919 51.009 114.023 51.243C114.131 51.4771 114.276 51.6725 114.462 51.8338C114.651 51.9974 114.878 52.1178 115.143 52.2041C115.407 52.2882 115.706 52.3291 116.032 52.3291C116.409 52.3291 116.768 52.2496 117.099 52.0905C117.435 51.9269 117.743 51.7043 118.012 51.4157V52.0337C118.012 52.0905 118.03 52.1337 118.065 52.1564C118.092 52.1859 118.152 52.2041 118.221 52.22C118.292 52.2336 118.386 52.2427 118.506 52.2427C118.63 52.2427 118.727 52.2336 118.791 52.22C118.858 52.2041 118.908 52.1859 118.947 52.1564C118.984 52.1314 119.005 52.0905 119.005 52.0337V47.8668C119.005 47.4806 118.961 47.1466 118.869 46.8581C118.777 46.5627 118.632 46.3241 118.444 46.131ZM117.853 50.5206C117.575 50.8318 117.308 51.0636 117.046 51.2135C116.789 51.3657 116.508 51.4407 116.209 51.4407C115.841 51.4407 115.552 51.3476 115.345 51.1567C115.14 50.9636 115.032 50.7114 115.032 50.391C115.032 50.2025 115.069 50.0389 115.143 49.8935C115.212 49.7503 115.329 49.6276 115.478 49.5231C115.628 49.4186 115.823 49.3414 116.055 49.2891C116.287 49.2369 116.566 49.2096 116.878 49.2096H117.853V50.5206Z" fill="#706F6F"/>
<path d="M130.107 51.3271C130.082 51.2885 130.056 51.2612 130.029 51.2408C129.999 51.2226 129.967 51.2135 129.923 51.2135H126.362V48.0372H129.378C129.415 48.0372 129.449 48.0281 129.479 48.01C129.509 47.9941 129.537 47.9691 129.557 47.9304C129.578 47.8986 129.594 47.8509 129.599 47.7896C129.608 47.7282 129.61 47.6578 129.61 47.5737C129.61 47.4874 129.608 47.4147 129.599 47.3488C129.592 47.2829 129.578 47.2352 129.557 47.1988C129.537 47.1602 129.509 47.133 129.479 47.1125C129.449 47.0921 129.413 47.0807 129.378 47.0807H126.362V44.2929H129.879C129.911 44.2929 129.951 44.2816 129.978 44.2634C130.006 44.243 130.036 44.218 130.049 44.1771C130.07 44.1362 130.082 44.0862 130.098 44.0248C130.107 43.9635 130.116 43.8931 130.116 43.8067C130.116 43.7158 130.107 43.6409 130.098 43.5773C130.082 43.5159 130.07 43.4637 130.049 43.4205C130.033 43.3796 130.006 43.3478 129.978 43.3341C129.951 43.3182 129.911 43.3069 129.879 43.3069H125.61C125.504 43.3069 125.401 43.341 125.306 43.4114C125.21 43.4841 125.162 43.6091 125.162 43.7886V51.7133C125.162 51.8906 125.21 52.0178 125.306 52.086C125.398 52.1564 125.504 52.195 125.61 52.195H129.923C129.964 52.195 129.999 52.1836 130.029 52.1655C130.056 52.1473 130.082 52.1178 130.107 52.0769C130.13 52.0337 130.146 51.9814 130.155 51.9201C130.167 51.8588 130.169 51.7883 130.169 51.7043C130.169 51.6156 130.164 51.5361 130.155 51.4725C130.146 51.4134 130.13 51.3635 130.107 51.3271Z" fill="#706F6F"/>
<path d="M135.772 49.1619C135.624 49.0233 135.457 48.9074 135.261 48.8097C135.07 48.7143 134.877 48.628 134.675 48.5484C134.477 48.4712 134.289 48.394 134.096 48.3235C133.907 48.2485 133.735 48.169 133.587 48.0781C133.438 47.985 133.321 47.8805 133.224 47.7578C133.135 47.6351 133.086 47.4851 133.086 47.3079C133.086 47.1807 133.109 47.0603 133.164 46.9512C133.208 46.8422 133.277 46.7445 133.378 46.6649C133.468 46.5854 133.594 46.5218 133.742 46.4786C133.889 46.4332 134.063 46.415 134.254 46.415C134.473 46.415 134.666 46.4423 134.834 46.4923C135.004 46.54 135.151 46.5945 135.277 46.649C135.399 46.7127 135.503 46.7626 135.583 46.8149C135.664 46.8649 135.723 46.8876 135.762 46.8876C135.792 46.8876 135.815 46.8808 135.838 46.8649C135.861 46.8467 135.882 46.8263 135.898 46.7854C135.916 46.7467 135.926 46.7036 135.935 46.6445C135.942 46.5877 135.944 46.5218 135.944 46.4423C135.944 46.3673 135.939 46.3082 135.935 46.256C135.926 46.2105 135.919 46.1628 135.91 46.1333C135.907 46.0947 135.896 46.0629 135.88 46.0401C135.861 46.0083 135.829 45.9788 135.778 45.9447C135.73 45.9038 135.661 45.8629 135.567 45.8152C135.473 45.7675 135.355 45.7243 135.224 45.6857C135.086 45.6448 134.939 45.6085 134.771 45.5835C134.604 45.5539 134.438 45.5426 134.27 45.5426C133.889 45.5426 133.558 45.5903 133.275 45.6948C132.99 45.7948 132.753 45.9288 132.564 46.0947C132.376 46.2628 132.231 46.4537 132.132 46.6786C132.04 46.9012 131.987 47.1307 131.987 47.3761C131.987 47.6487 132.036 47.885 132.125 48.0827C132.22 48.2781 132.335 48.4462 132.486 48.5871C132.633 48.7302 132.801 48.8484 132.99 48.9506C133.176 49.046 133.369 49.1369 133.567 49.2141C133.762 49.2914 133.958 49.3664 134.137 49.4368C134.325 49.5095 134.491 49.589 134.643 49.6799C134.79 49.7731 134.907 49.8799 134.997 49.9957C135.086 50.1161 135.13 50.2615 135.13 50.4365C135.13 50.6046 135.1 50.7523 135.038 50.875C134.976 51 134.886 51.1022 134.771 51.1817C134.659 51.2635 134.521 51.318 134.36 51.3612C134.204 51.4021 134.024 51.4248 133.836 51.4248C133.574 51.4248 133.346 51.393 133.144 51.3317C132.946 51.2726 132.774 51.2067 132.631 51.1295C132.484 51.0545 132.362 50.9909 132.259 50.925C132.16 50.8682 132.084 50.8364 132.033 50.8364C132.001 50.8364 131.969 50.8432 131.946 50.8614C131.923 50.8727 131.905 50.9023 131.889 50.9409C131.872 50.9772 131.861 51.0249 131.856 51.084C131.843 51.1431 131.843 51.2135 131.843 51.3044C131.843 51.4475 131.852 51.5566 131.875 51.6429C131.9 51.7225 131.932 51.7883 131.985 51.8315C132.036 51.8792 132.118 51.9292 132.229 51.9883C132.339 52.0451 132.475 52.0996 132.638 52.1519C132.794 52.2064 132.976 52.2496 133.178 52.2859C133.383 52.32 133.592 52.3336 133.81 52.3336C134.176 52.3336 134.507 52.2905 134.806 52.2064C135.107 52.1178 135.367 51.9883 135.588 51.8202C135.804 51.6497 135.972 51.443 136.091 51.1953C136.215 50.95 136.266 50.6637 136.266 50.3502C136.266 50.0843 136.224 49.8526 136.133 49.6617C136.043 49.4618 135.919 49.2982 135.772 49.1619Z" fill="#706F6F"/>
<path d="M143.437 46.5082C143.237 46.2083 142.977 45.9697 142.657 45.7947C142.335 45.6198 141.949 45.5357 141.496 45.5357C141.287 45.5357 141.092 45.563 140.901 45.6084C140.712 45.6562 140.528 45.7243 140.351 45.8197C140.172 45.9152 139.997 46.031 139.818 46.1742C139.646 46.3196 139.462 46.4832 139.271 46.674V45.8425C139.271 45.8038 139.262 45.7698 139.248 45.7448C139.229 45.7175 139.202 45.6993 139.158 45.6811C139.119 45.6584 139.066 45.6493 139.006 45.6425C138.94 45.6334 138.862 45.6334 138.763 45.6334C138.673 45.6334 138.595 45.6334 138.528 45.6425C138.466 45.6493 138.411 45.6584 138.37 45.6811C138.328 45.6993 138.298 45.7175 138.287 45.7448C138.271 45.7698 138.266 45.8016 138.266 45.8425V54.4784C138.266 54.5147 138.278 54.5488 138.289 54.5761C138.307 54.6033 138.335 54.6238 138.379 54.6442C138.42 54.6647 138.485 54.6783 138.558 54.6851C138.629 54.6942 138.719 54.6988 138.834 54.6988C138.951 54.6988 139.048 54.6942 139.119 54.6851C139.19 54.6783 139.25 54.6647 139.294 54.6442C139.333 54.6238 139.367 54.6033 139.383 54.5761C139.402 54.5488 139.411 54.5125 139.411 54.4784V51.3884C139.579 51.5475 139.735 51.6884 139.885 51.8088C140.032 51.9269 140.181 52.0223 140.331 52.1041C140.485 52.1791 140.636 52.2336 140.79 52.2745C140.949 52.3086 141.119 52.3268 141.303 52.3268C141.745 52.3268 142.131 52.2473 142.469 52.086C142.807 51.9201 143.089 51.6906 143.319 51.3884C143.547 51.0885 143.722 50.725 143.841 50.2933C143.959 49.8639 144.018 49.3777 144.018 48.8392C144.018 48.3871 143.972 47.9668 143.88 47.5669C143.788 47.1625 143.641 46.8126 143.437 46.5082ZM142.738 49.8253C142.678 50.1093 142.588 50.366 142.455 50.5955C142.326 50.8204 142.158 51.0045 141.954 51.1431C141.745 51.2794 141.499 51.3476 141.207 51.3476C140.894 51.3476 140.593 51.2521 140.312 51.0454C140.025 50.8477 139.728 50.5546 139.409 50.1706V47.7146C139.593 47.4897 139.763 47.3011 139.928 47.1511C140.089 46.9944 140.246 46.8717 140.395 46.7808C140.542 46.6854 140.694 46.6149 140.832 46.574C140.979 46.5286 141.124 46.5059 141.273 46.5059C141.572 46.5059 141.82 46.5763 142.023 46.7104C142.225 46.8535 142.384 47.033 142.503 47.2625C142.616 47.4897 142.706 47.7555 142.754 48.0486C142.802 48.3439 142.83 48.6529 142.83 48.9642C142.832 49.255 142.8 49.5413 142.738 49.8253Z" fill="#706F6F"/>
<path d="M150.253 46.131C150.06 45.9334 149.803 45.7879 149.492 45.6857C149.175 45.5835 148.793 45.5335 148.343 45.5335C148.101 45.5335 147.862 45.5539 147.626 45.5994C147.391 45.6403 147.173 45.6971 146.975 45.7607C146.775 45.8266 146.598 45.8993 146.446 45.9765C146.294 46.0651 146.186 46.131 146.122 46.1878C146.06 46.2492 146.016 46.3128 146.002 46.3764C145.993 46.4423 145.982 46.5332 145.982 46.6536C145.982 46.7195 145.986 46.7808 145.993 46.8399C146.002 46.8967 146.016 46.9444 146.037 46.983C146.058 47.0194 146.083 47.0466 146.108 47.0625C146.138 47.0784 146.168 47.0898 146.209 47.0898C146.265 47.0898 146.347 47.0557 146.462 46.9944C146.575 46.9239 146.715 46.8535 146.885 46.7717C147.058 46.6945 147.251 46.6218 147.476 46.5513C147.697 46.49 147.952 46.4536 148.235 46.4536C148.499 46.4536 148.72 46.4855 148.904 46.5468C149.081 46.6104 149.23 46.7036 149.345 46.8263C149.456 46.9421 149.541 47.0966 149.591 47.2784C149.642 47.4624 149.669 47.6737 149.669 47.9123V48.3917H148.807C148.318 48.3917 147.883 48.4326 147.492 48.5189C147.101 48.6052 146.773 48.7302 146.506 48.9029C146.232 49.071 146.028 49.2868 145.887 49.5413C145.743 49.7958 145.671 50.098 145.671 50.4478C145.671 50.7455 145.722 51.009 145.825 51.243C145.933 51.4771 146.078 51.6725 146.265 51.8338C146.453 51.9974 146.681 52.1178 146.95 52.2041C147.216 52.2882 147.513 52.3291 147.842 52.3291C148.216 52.3291 148.575 52.2496 148.911 52.0905C149.239 51.9269 149.55 51.7043 149.823 51.4157V52.0337C149.823 52.0905 149.842 52.1337 149.876 52.1564C149.906 52.1859 149.954 52.2041 150.03 52.22C150.102 52.2336 150.196 52.2427 150.318 52.2427C150.444 52.2427 150.534 52.2336 150.603 52.22C150.667 52.2041 150.718 52.1859 150.757 52.1564C150.794 52.1314 150.812 52.0905 150.812 52.0337V47.8668C150.812 47.4806 150.766 47.1466 150.681 46.8581C150.591 46.5627 150.446 46.3241 150.253 46.131ZM149.672 50.5206C149.387 50.8318 149.118 51.0636 148.858 51.2135C148.6 51.3657 148.327 51.4407 148.021 51.4407C147.651 51.4407 147.361 51.3476 147.157 51.1567C146.95 50.9636 146.844 50.7114 146.844 50.391C146.844 50.2025 146.885 50.0389 146.954 49.8935C147.028 49.7503 147.14 49.6276 147.295 49.5231C147.444 49.4186 147.637 49.3414 147.872 49.2891C148.101 49.2369 148.375 49.2096 148.688 49.2096H149.672V50.5206Z" fill="#706F6F"/>
<path d="M157.727 50.6819C157.709 50.6387 157.691 50.6046 157.661 50.5887C157.642 50.5705 157.612 50.5592 157.58 50.5592C157.527 50.5592 157.449 50.6001 157.35 50.6819C157.251 50.7614 157.127 50.8477 156.982 50.9477C156.835 51.0454 156.663 51.1385 156.465 51.2181C156.265 51.2976 156.033 51.343 155.769 51.343C155.488 51.343 155.242 51.2953 155.028 51.1953C154.814 51.0977 154.635 50.9454 154.486 50.7478C154.339 50.5433 154.224 50.2934 154.148 49.9934C154.072 49.6935 154.035 49.3482 154.035 48.9506C154.035 48.1463 154.182 47.5419 154.472 47.1216C154.768 46.7013 155.192 46.4945 155.741 46.4945C156.01 46.4945 156.247 46.5286 156.442 46.6081C156.638 46.6854 156.805 46.7672 156.943 46.8581C157.084 46.9512 157.199 47.0353 157.288 47.1125C157.382 47.1875 157.456 47.2261 157.53 47.2261C157.589 47.2261 157.645 47.1898 157.684 47.1216C157.725 47.0444 157.743 46.924 157.743 46.7422C157.743 46.6581 157.743 46.5922 157.741 46.5377C157.739 46.4809 157.725 46.4309 157.714 46.3923C157.7 46.3469 157.681 46.3082 157.656 46.2787C157.635 46.2469 157.601 46.1992 157.546 46.1447C157.488 46.0947 157.399 46.0265 157.277 45.947C157.157 45.872 157.015 45.8016 156.856 45.7402C156.7 45.6812 156.525 45.6335 156.339 45.5948C156.15 45.5607 155.957 45.5426 155.759 45.5426C155.346 45.5426 154.964 45.6085 154.61 45.7425C154.254 45.8766 153.941 46.0856 153.686 46.3628C153.421 46.6422 153.214 46.9989 153.065 47.4374C152.915 47.8782 152.84 48.4008 152.84 49.0097C152.84 49.5413 152.899 50.0184 153.024 50.4274C153.143 50.8364 153.325 51.1817 153.561 51.4657C153.794 51.7474 154.083 51.961 154.435 52.1042C154.782 52.2541 155.178 52.3245 155.631 52.3245C155.847 52.3245 156.056 52.3041 156.261 52.2632C156.465 52.2246 156.654 52.1678 156.828 52.1042C157.003 52.0383 157.162 51.9656 157.297 51.8792C157.435 51.7929 157.537 51.7225 157.589 51.6679C157.651 51.6089 157.688 51.5657 157.704 51.5316C157.725 51.5021 157.737 51.4703 157.748 51.4271C157.76 51.3885 157.766 51.3453 157.776 51.284C157.776 51.2294 157.778 51.159 157.778 51.0817C157.778 50.9886 157.776 50.9136 157.766 50.8477C157.75 50.7796 157.739 50.725 157.727 50.6819Z" fill="#706F6F"/>
<path d="M160.679 45.6857C160.633 45.6652 160.573 45.6516 160.502 45.6471C160.426 45.6312 160.33 45.6312 160.215 45.6312C160.104 45.6312 160.015 45.6312 159.941 45.6471C159.865 45.6516 159.806 45.6652 159.762 45.6857C159.716 45.7016 159.686 45.7289 159.675 45.7516C159.654 45.7788 159.647 45.8084 159.647 45.8402V52.0269C159.647 52.061 159.654 52.0905 159.675 52.1155C159.686 52.145 159.716 52.1655 159.762 52.1837C159.806 52.2018 159.865 52.2132 159.941 52.2246C160.013 52.2314 160.102 52.2382 160.215 52.2382C160.332 52.2382 160.429 52.2314 160.502 52.2246C160.573 52.2132 160.633 52.1996 160.679 52.1837C160.718 52.1655 160.746 52.145 160.769 52.1155C160.785 52.0905 160.792 52.061 160.792 52.0269V45.8402C160.792 45.8107 160.783 45.7811 160.769 45.7516C160.746 45.7289 160.718 45.7016 160.679 45.6857Z" fill="#706F6F"/>
<path d="M160.222 43.082C159.946 43.082 159.76 43.1297 159.661 43.2251C159.56 43.3228 159.505 43.5046 159.505 43.7704C159.505 44.0294 159.558 44.2043 159.656 44.3066C159.755 44.3975 159.939 44.4452 160.206 44.4452C160.482 44.4452 160.67 44.3952 160.769 44.2975C160.875 44.2021 160.925 44.0226 160.925 43.7568C160.925 43.4955 160.875 43.3183 160.776 43.2251C160.679 43.1297 160.493 43.082 160.222 43.082Z" fill="#706F6F"/>
<path d="M167.425 46.131C167.236 45.9334 166.974 45.7879 166.659 45.6857C166.344 45.5835 165.965 45.5335 165.517 45.5335C165.273 45.5335 165.034 45.5539 164.799 45.5994C164.562 45.6403 164.342 45.6971 164.142 45.7607C163.946 45.8266 163.774 45.8993 163.618 45.9765C163.464 46.0651 163.355 46.131 163.293 46.1878C163.231 46.2492 163.195 46.3128 163.176 46.3764C163.158 46.4423 163.151 46.5332 163.151 46.6536C163.151 46.7195 163.153 46.7808 163.167 46.8399C163.174 46.8967 163.188 46.9444 163.211 46.983C163.229 47.0194 163.252 47.0466 163.284 47.0625C163.307 47.0784 163.344 47.0898 163.383 47.0898C163.434 47.0898 163.521 47.0557 163.636 46.9944C163.749 46.9239 163.889 46.8535 164.059 46.7717C164.229 46.6945 164.425 46.6218 164.652 46.5513C164.871 46.49 165.126 46.4536 165.411 46.4536C165.671 46.4536 165.894 46.4855 166.078 46.5468C166.257 46.6104 166.404 46.7036 166.519 46.8263C166.632 46.9421 166.714 47.0966 166.763 47.2784C166.82 47.4624 166.843 47.6737 166.843 47.9123V48.3917H165.981C165.496 48.3917 165.057 48.4326 164.671 48.5189C164.277 48.6052 163.946 48.7302 163.68 48.9029C163.406 49.071 163.204 49.2868 163.061 49.5413C162.916 49.7958 162.847 50.098 162.847 50.4478C162.847 50.7455 162.896 51.009 163.001 51.243C163.107 51.4771 163.25 51.6725 163.438 51.8338C163.624 51.9974 163.852 52.1178 164.116 52.2041C164.383 52.2882 164.684 52.3291 165.011 52.3291C165.388 52.3291 165.744 52.2496 166.08 52.0905C166.418 51.9269 166.719 51.7043 166.995 51.4157V52.0337C166.995 52.0905 167.006 52.1337 167.045 52.1564C167.075 52.1859 167.126 52.2041 167.202 52.22C167.271 52.2336 167.367 52.2427 167.487 52.2427C167.609 52.2427 167.705 52.2336 167.772 52.22C167.834 52.2041 167.887 52.1859 167.924 52.1564C167.956 52.1314 167.981 52.0905 167.981 52.0337V47.8668C167.981 47.4806 167.935 47.1466 167.846 46.8581C167.765 46.5627 167.62 46.3241 167.425 46.131ZM166.843 50.5206C166.56 50.8318 166.291 51.0636 166.034 51.2135C165.779 51.3657 165.496 51.4407 165.195 51.4407C164.822 51.4407 164.533 51.3476 164.33 51.1567C164.123 50.9636 164.018 50.7114 164.018 50.391C164.018 50.2025 164.057 50.0389 164.126 49.8935C164.197 49.7503 164.312 49.6276 164.466 49.5231C164.618 49.4186 164.811 49.3414 165.041 49.2891C165.273 49.2369 165.546 49.2096 165.859 49.2096H166.841V50.5206H166.843Z" fill="#706F6F"/>
<path d="M171.561 42.7503C171.544 42.723 171.512 42.7025 171.475 42.6821C171.432 42.6639 171.372 42.6503 171.298 42.6412C171.223 42.6344 171.131 42.6321 171.013 42.6321C170.903 42.6321 170.809 42.6344 170.733 42.6412C170.662 42.6503 170.602 42.6662 170.556 42.6821C170.508 42.7025 170.48 42.723 170.466 42.7503C170.448 42.7775 170.441 42.8139 170.441 42.848V52.0269C170.441 52.061 170.448 52.0905 170.466 52.1155C170.482 52.145 170.508 52.1655 170.556 52.1837C170.602 52.2018 170.662 52.2132 170.733 52.2246C170.809 52.2314 170.901 52.2382 171.013 52.2382C171.131 52.2382 171.223 52.2314 171.298 52.2246C171.37 52.2132 171.43 52.1996 171.475 52.1837C171.512 52.1655 171.544 52.145 171.561 52.1155C171.586 52.0905 171.59 52.061 171.59 52.0269V42.848C171.59 42.8116 171.586 42.7775 171.561 42.7503Z" fill="#706F6F"/>
<path d="M38.7823 19.1667C38.7846 29.7498 30.1035 38.3312 19.3946 38.3334C8.68573 38.3357 0.00229949 29.7566 4.56534e-07 19.1735C4.56534e-07 19.1713 4.56534e-07 19.169 4.56534e-07 19.1667C-0.00229857 8.58367 8.67884 0.00227247 19.3877 4.5117e-07C30.0966 -0.00227156 38.78 8.57686 38.7823 19.1599C38.7823 19.1622 38.7823 19.1644 38.7823 19.1667Z" fill="url(#paint0_radial_392_272)"/>
<path d="M37.7525 18.5147C37.7548 28.2934 29.7335 36.2205 19.8385 36.2228C9.94573 36.225 1.92212 28.298 1.92212 18.5192C1.92212 18.517 1.92212 18.5147 1.92212 18.5124C1.91982 8.73365 9.94114 0.804322 19.8362 0.804322C29.7312 0.80205 37.7548 8.72911 37.7548 18.5079C37.7525 18.5101 37.7525 18.5124 37.7525 18.5147Z" fill="url(#paint1_linear_392_272)"/>
<path d="M35.5178 15.9837C35.5201 23.7676 29.1357 30.0792 21.2569 30.0815C13.3805 30.0838 6.99375 23.7744 6.99146 15.9882C6.99146 15.9859 6.99146 15.9859 6.99146 15.9837C6.98916 8.19973 13.3736 1.88808 21.2523 1.8858C29.1288 1.88353 35.5155 8.19292 35.5178 15.9791C35.5178 15.9814 35.5178 15.9837 35.5178 15.9837Z" fill="url(#paint2_linear_392_272)"/>
<path d="M31.8853 4.51679C33.0004 13.2459 31.4301 21.9 27.685 29.493C26.8597 32.015 25.809 34.4574 24.5468 36.7908C31.1542 28.0662 34.4419 17.0447 33.3107 5.82547C32.8578 5.36652 32.3819 4.93029 31.8853 4.51679ZM19.3924 0.00683594C19.1326 0.00683594 18.8705 0.01138 18.613 0.0227401C21.7374 5.96179 23.5054 12.7119 23.5054 19.8688C23.5054 26.4758 21.9995 32.7352 19.3096 38.3312C19.3372 38.3312 19.3648 38.3312 19.3924 38.3312C19.9442 38.3312 20.4913 38.3062 21.0316 38.2608C25.4917 28.5774 26.4711 17.2901 22.9398 6.35485C22.2271 4.15099 21.3558 2.03802 20.3442 0.0272841C20.0269 0.01138 19.7097 0.00683594 19.3924 0.00683594Z" fill="url(#paint3_linear_392_272)"/>
<path d="M31.8853 4.51679C33.0004 13.2459 31.4301 21.9 27.685 29.493C26.8597 32.015 25.809 34.4574 24.5468 36.7908C31.1542 28.0662 34.4419 17.0447 33.3107 5.82547C32.8578 5.36652 32.3819 4.93029 31.8853 4.51679ZM19.3924 0.00683594C19.1326 0.00683594 18.8705 0.01138 18.613 0.0227401C21.7374 5.96179 23.5054 12.7119 23.5054 19.8688C23.5054 26.4758 21.9995 32.7352 19.3096 38.3312C19.3372 38.3312 19.3648 38.3312 19.3924 38.3312C19.9442 38.3312 20.4913 38.3062 21.0316 38.2608C25.4917 28.5774 26.4711 17.2901 22.9398 6.35485C22.2271 4.15099 21.3558 2.03802 20.3442 0.0272841C20.0269 0.01138 19.7097 0.00683594 19.3924 0.00683594Z" fill="url(#paint4_linear_392_272)"/>
<path d="M20.342 0.0272827C21.3536 2.03802 22.2249 4.14872 22.9376 6.35485C26.469 17.2901 25.4896 28.5774 21.0295 38.2608C23.1813 38.0835 25.2321 37.5587 27.1265 36.743C34.1339 30.4723 37.9825 21.2456 37.2698 11.7395C36.3272 9.52658 34.9754 7.5272 33.3109 5.83001C34.442 17.0492 31.1567 28.0685 24.547 36.793C30.0715 26.5735 31.5728 14.2433 27.7265 2.33338C27.6667 2.14707 27.6024 1.96304 27.5403 1.77673C25.3332 0.765688 22.9032 0.149972 20.342 0.0272827Z" fill="white"/>
<path d="M70.5205 11.4124C70.332 11.3919 70.0699 11.3783 69.7434 11.3783C69.4285 11.3783 69.1756 11.3851 68.9847 11.401C68.7916 11.4124 68.6491 11.4396 68.5433 11.4783C68.4353 11.5169 68.364 11.5669 68.3226 11.6373C68.2766 11.7009 68.2422 11.7895 68.2077 11.8918L62.4969 27.3528H62.4762L56.6045 11.8645C56.5631 11.7668 56.5171 11.6896 56.4688 11.6282C56.4206 11.5669 56.3516 11.5169 56.2596 11.4783C56.1654 11.4419 56.0274 11.4124 55.8527 11.401C55.6803 11.3851 55.4481 11.3783 55.1492 11.3783C54.7928 11.3783 54.5078 11.3897 54.2939 11.4101C54.0847 11.4283 53.9284 11.4692 53.8387 11.5351C53.7468 11.6032 53.6939 11.6986 53.7008 11.8282C53.71 11.9577 53.7514 12.1212 53.8387 12.3303L60.5358 29.4295C60.5634 29.5044 60.5956 29.568 60.6347 29.6226C60.6715 29.6771 60.722 29.7203 60.7887 29.7566C60.8485 29.7975 60.9266 29.8271 61.014 29.8498C61.1037 29.877 61.214 29.8975 61.3382 29.9157C61.4669 29.9361 61.6164 29.9452 61.7911 29.9543C61.9681 29.9543 62.1681 29.9611 62.4003 29.9611C62.7084 29.9611 62.9613 29.9543 63.1682 29.9361C63.3751 29.9248 63.5429 29.8975 63.6786 29.8589C63.8073 29.8202 63.9108 29.7703 63.9844 29.7021C64.0602 29.6362 64.1154 29.5499 64.1591 29.4454L70.8401 12.3484C70.9274 12.1394 70.9757 11.9713 70.9895 11.8463C71.0079 11.7168 70.9803 11.6191 70.9159 11.5532C70.8378 11.4851 70.709 11.4374 70.5205 11.4124Z" fill="white"/>
<path d="M172.8 29.0023L166.105 11.9054C166.071 11.8304 166.038 11.7668 165.999 11.7146C165.962 11.66 165.91 11.6146 165.85 11.5805C165.783 11.5419 165.71 11.5101 165.622 11.4851C165.533 11.4624 165.422 11.4419 165.298 11.4215C165.172 11.401 165.02 11.3897 164.845 11.3851C164.67 11.3851 164.468 11.3783 164.236 11.3783C163.93 11.3783 163.673 11.3851 163.466 11.401C163.261 11.4124 163.093 11.4396 162.965 11.4783C162.831 11.5169 162.728 11.5669 162.652 11.6373C162.581 11.7009 162.523 11.7895 162.477 11.8918L155.798 28.9864C155.718 29.1932 155.665 29.3658 155.644 29.4931C155.633 29.6226 155.656 29.718 155.729 29.7862C155.796 29.8521 155.925 29.8952 156.116 29.9225C156.302 29.9429 156.562 29.9588 156.886 29.9588C157.203 29.9588 157.461 29.952 157.649 29.9338C157.84 29.9225 157.985 29.8952 158.093 29.8566C158.199 29.818 158.27 29.768 158.314 29.6998C158.362 29.6339 158.399 29.5476 158.424 29.4431L164.142 13.9843H164.16L170.029 29.4704C170.071 29.5658 170.119 29.643 170.167 29.7044C170.209 29.768 170.285 29.818 170.381 29.8566C170.478 29.8952 170.609 29.9225 170.779 29.9338C170.956 29.952 171.193 29.9588 171.487 29.9588C171.848 29.9588 172.131 29.9429 172.342 29.927C172.556 29.9066 172.705 29.8657 172.802 29.7998C172.894 29.7316 172.94 29.6339 172.938 29.509C172.929 29.3817 172.887 29.2113 172.8 29.0023Z" fill="white"/>
<path d="M78.3279 11.4987C78.2221 11.4692 78.0842 11.4374 77.9095 11.4124C77.7324 11.3919 77.5163 11.3783 77.2496 11.3783C77.0128 11.3783 76.8036 11.3919 76.6289 11.4124C76.4519 11.4374 76.3139 11.4692 76.2036 11.4987C76.0932 11.5328 76.0105 11.5782 75.9645 11.6373C75.9185 11.6941 75.8955 11.76 75.8955 11.8372V29.5022C75.8955 29.5794 75.9116 29.6453 75.9553 29.7021C76.0013 29.7566 76.0748 29.8021 76.1806 29.8339C76.2863 29.8657 76.4266 29.8975 76.6059 29.9225C76.7829 29.9429 77.0013 29.9588 77.2519 29.9588C77.5186 29.9588 77.7347 29.9429 77.9118 29.9225C78.0865 29.8952 78.2244 29.8657 78.3302 29.8339C78.4382 29.8021 78.5095 29.7566 78.5509 29.7021C78.5969 29.6453 78.613 29.5794 78.613 29.5022V11.8372C78.613 11.76 78.5946 11.6941 78.5509 11.6373C78.5095 11.5805 78.4359 11.5328 78.3279 11.4987Z" fill="white"/>
<path d="M95.2212 21.4138C94.7867 21.023 94.2855 20.6799 93.7268 20.3891C93.1659 20.0983 92.5957 19.8325 92.0164 19.5916C91.437 19.3508 90.8669 19.11 90.3059 18.8737C89.7449 18.6374 89.246 18.3761 88.8092 18.0898C88.3678 17.8035 88.0207 17.4764 87.7563 17.1083C87.4988 16.7402 87.3631 16.2927 87.3631 15.7837C87.3631 15.4361 87.4321 15.1021 87.5678 14.7886C87.7057 14.4773 87.9126 14.2069 88.1885 13.982C88.4621 13.7503 88.8069 13.5685 89.2322 13.4345C89.6507 13.2981 90.1473 13.2277 90.7151 13.2277C91.3313 13.2277 91.883 13.2981 92.375 13.4345C92.867 13.5685 93.2877 13.7207 93.6487 13.8889C94.0027 14.0547 94.3131 14.2024 94.5591 14.3387C94.8051 14.4682 94.989 14.5364 95.104 14.5364C95.1752 14.5364 95.2419 14.5137 95.2994 14.4705C95.3592 14.4296 95.4051 14.3614 95.4373 14.2683C95.4672 14.1842 95.4902 14.0706 95.504 13.9366C95.5247 13.8025 95.5339 13.6548 95.5339 13.4799C95.5339 13.3027 95.5247 13.155 95.5178 13.0414C95.4994 12.921 95.4879 12.8301 95.4672 12.746C95.4465 12.6688 95.4189 12.6006 95.3867 12.5484C95.3546 12.4984 95.2879 12.4257 95.1913 12.3348C95.0925 12.2462 94.8833 12.1281 94.5637 11.9804C94.2487 11.8327 93.8855 11.7032 93.4809 11.5828C93.0762 11.4646 92.644 11.3692 92.1796 11.2965C91.7267 11.2283 91.2669 11.1874 90.814 11.1874C89.9289 11.1874 89.1012 11.2965 88.3356 11.5101C87.5701 11.7236 86.9125 12.0349 86.3585 12.4416C85.8044 12.8528 85.3745 13.3504 85.0595 13.9548C84.7468 14.5591 84.5951 15.243 84.5951 16.0132C84.5951 16.7561 84.7238 17.4014 84.9974 17.9376C85.2641 18.4715 85.6182 18.9441 86.0504 19.3394C86.4826 19.737 86.9723 20.0824 87.5218 20.38C88.0712 20.6708 88.6368 20.9412 89.2162 21.182C89.7978 21.4229 90.3657 21.6614 90.9174 21.8909C91.4738 22.1249 91.9681 22.3817 92.4003 22.6634C92.8325 22.9406 93.182 23.2677 93.4441 23.6381C93.7039 24.0084 93.8372 24.4537 93.8372 24.974C93.8372 25.4602 93.7475 25.8874 93.5521 26.2691C93.3636 26.6508 93.0923 26.9689 92.7383 27.2301C92.3842 27.4891 91.9612 27.6936 91.4715 27.8345C90.9795 27.9754 90.4392 28.0481 89.8484 28.0481C89.0713 28.0481 88.3793 27.964 87.7839 27.8004C87.1838 27.6346 86.6757 27.4573 86.2573 27.2688C85.8343 27.0779 85.4894 26.9052 85.2181 26.7417C84.9469 26.5826 84.7422 26.5008 84.5951 26.5008C84.5123 26.5008 84.4365 26.5167 84.3744 26.5508C84.31 26.5826 84.2571 26.6417 84.2181 26.7258C84.1698 26.8144 84.1422 26.9234 84.1215 27.062C84.0962 27.2006 84.0847 27.371 84.0847 27.5823C84.0847 27.8754 84.1146 28.1071 84.1721 28.2821C84.2319 28.457 84.3261 28.6047 84.4434 28.7183C84.5629 28.8319 84.779 28.9682 85.094 29.1295C85.4067 29.2909 85.7906 29.4476 86.2458 29.5976C86.7079 29.7521 87.2298 29.8793 87.816 29.9838C88.4046 30.0883 89.0368 30.1406 89.7242 30.1406C90.7059 30.1406 91.6232 30.0224 92.4693 29.7839C93.3199 29.5476 94.0625 29.1932 94.6855 28.7251C95.3155 28.2548 95.8029 27.6823 96.1569 27.0098C96.511 26.3372 96.6903 25.5693 96.6903 24.7059C96.6903 23.9766 96.5524 23.345 96.2857 22.8065C96.0121 22.2749 95.658 21.8046 95.2212 21.4138Z" fill="white"/>
<path d="M104.638 11.4987C104.532 11.4692 104.394 11.4374 104.222 11.4124C104.047 11.3919 103.829 11.3783 103.565 11.3783C103.325 11.3783 103.112 11.3919 102.937 11.4124C102.764 11.4374 102.624 11.4692 102.512 11.4987C102.401 11.5328 102.323 11.5782 102.275 11.6373C102.227 11.6941 102.206 11.76 102.206 11.8372V29.5022C102.206 29.5794 102.227 29.6453 102.268 29.7021C102.309 29.7566 102.383 29.8021 102.489 29.8339C102.594 29.8657 102.737 29.8975 102.919 29.9225C103.102 29.9429 103.314 29.9588 103.567 29.9588C103.831 29.9588 104.05 29.9429 104.224 29.9225C104.399 29.8952 104.537 29.8657 104.64 29.8339C104.746 29.8021 104.82 29.7566 104.866 29.7021C104.909 29.6453 104.926 29.5794 104.926 29.5022V11.8372C104.926 11.76 104.907 11.6941 104.866 11.6373C104.818 11.5805 104.744 11.5328 104.638 11.4987Z" fill="white"/>
<path d="M126.945 13.5912C126.198 12.8074 125.267 12.2144 124.15 11.8054C123.03 11.3987 121.72 11.192 120.207 11.192C118.651 11.192 117.278 11.4215 116.11 11.8713C114.935 12.3212 113.958 12.9573 113.177 13.7934C112.393 14.6227 111.811 15.6292 111.418 16.8152C111.027 17.9989 110.836 19.3167 110.836 20.7708C110.836 22.2862 111.016 23.6267 111.37 24.7923C111.728 25.9601 112.278 26.9348 113.011 27.7232C113.747 28.5116 114.673 29.1091 115.795 29.5249C116.919 29.9361 118.255 30.1429 119.795 30.1429C121.357 30.1429 122.722 29.9157 123.895 29.4635C125.065 29.0159 126.04 28.3684 126.814 27.53C127.589 26.6939 128.173 25.6761 128.564 24.481C128.953 23.2837 129.148 21.9454 129.148 20.455C129.148 18.9668 128.969 17.6468 128.603 16.4949C128.242 15.3384 127.688 14.3728 126.945 13.5912ZM125.957 23.4541C125.743 24.3424 125.391 25.1308 124.897 25.8079C124.4 26.4872 123.748 27.0234 122.941 27.421C122.127 27.8186 121.124 28.0185 119.931 28.0185C118.731 28.0185 117.731 27.8368 116.936 27.4732C116.138 27.1075 115.503 26.5962 115.032 25.9328C114.554 25.2785 114.216 24.4924 114.013 23.5836C113.816 22.6702 113.717 21.6773 113.717 20.5936C113.717 19.6189 113.823 18.6851 114.041 17.8013C114.257 16.9152 114.613 16.1404 115.115 15.477C115.616 14.8136 116.266 14.2819 117.069 13.8821C117.869 13.4822 118.86 13.2845 120.039 13.2845C121.219 13.2845 122.212 13.4731 123.014 13.8366C123.812 14.2092 124.453 14.7182 124.934 15.3816C125.414 16.0405 125.757 16.8175 125.959 17.7149C126.166 18.6124 126.27 19.5825 126.27 20.6254C126.272 21.6205 126.166 22.5611 125.957 23.4541Z" fill="white"/>
<path d="M150.281 11.5419C150.175 11.4987 150.037 11.4692 149.862 11.451C149.683 11.4328 149.469 11.4192 149.223 11.4192C148.943 11.4192 148.72 11.4305 148.547 11.451C148.373 11.4692 148.235 11.4987 148.131 11.5419C148.025 11.585 147.952 11.6373 147.906 11.6918C147.86 11.7486 147.839 11.81 147.839 11.8781V21.8614C147.839 22.6134 147.841 23.3904 147.841 24.1993C147.853 25.0104 147.862 25.792 147.883 26.5417H147.867C147.623 26.0964 147.372 25.6511 147.124 25.2126C146.874 24.7696 146.621 24.3197 146.368 23.8676C146.113 23.4109 145.848 22.9519 145.572 22.4816C145.299 22.0091 145.009 21.5297 144.717 21.0366L139.908 12.9573C139.735 12.6665 139.572 12.4211 139.413 12.2258C139.257 12.0349 139.091 11.8781 138.921 11.7714C138.756 11.66 138.56 11.585 138.351 11.5351C138.137 11.4874 137.877 11.4669 137.563 11.4669H136.222C135.939 11.4669 135.68 11.5464 135.438 11.7077C135.197 11.869 135.075 12.1371 135.075 12.5211V29.5022C135.075 29.5681 135.098 29.6317 135.144 29.693C135.19 29.7544 135.259 29.8043 135.36 29.8361C135.459 29.868 135.597 29.8998 135.767 29.9248C135.942 29.9452 136.16 29.9611 136.427 29.9611C136.698 29.9611 136.916 29.9452 137.087 29.9248C137.261 29.8975 137.402 29.868 137.503 29.8361C137.613 29.8043 137.687 29.7566 137.73 29.693C137.776 29.6317 137.799 29.5681 137.799 29.5022V18.3965C137.799 17.6922 137.79 16.9879 137.781 16.2768C137.772 15.5656 137.753 14.8681 137.73 14.1842H137.76C138.054 14.7477 138.356 15.318 138.691 15.9155C139.025 16.5108 139.351 17.0742 139.678 17.615L145.929 28.0822C146.142 28.457 146.345 28.7547 146.538 28.9932C146.726 29.2318 146.92 29.4181 147.115 29.5567C147.303 29.6953 147.506 29.7884 147.715 29.8384C147.929 29.8929 148.177 29.9179 148.462 29.9179H149.361C149.501 29.9179 149.649 29.8998 149.791 29.8611C149.931 29.8225 150.06 29.7612 150.173 29.6748C150.29 29.5862 150.382 29.4817 150.453 29.3499C150.522 29.2159 150.561 29.0568 150.561 28.8637V11.8827C150.561 11.8145 150.538 11.7532 150.49 11.6964C150.453 11.6373 150.38 11.5873 150.281 11.5419Z" fill="white"/>
<defs>
<radialGradient id="paint0_radial_392_272" cx="0" cy="0" r="1" gradientUnits="userSpaceOnUse" gradientTransform="translate(19.3912 19.1667) scale(19.3929 19.165)">
<stop offset="0.58" stop-color="#F6A117"/>
<stop offset="0.7017" stop-color="#F69F17"/>
<stop offset="0.7832" stop-color="#F49818"/>
<stop offset="0.8531" stop-color="#F28B1A"/>
<stop offset="0.9163" stop-color="#EF791C"/>
<stop offset="0.9745" stop-color="#EB611D"/>
<stop offset="1" stop-color="#E9521D"/>
</radialGradient>
<linearGradient id="paint1_linear_392_272" x1="8.92115" y1="30.9887" x2="35.8677" y2="-0.543945" gradientUnits="userSpaceOnUse">
<stop offset="0.0961" stop-color="#E9521D"/>
<stop offset="1" stop-color="#F6A117"/>
</linearGradient>
<linearGradient id="paint2_linear_392_272" x1="10.6608" y1="27.7112" x2="29.4113" y2="6.45758" gradientUnits="userSpaceOnUse">
<stop stop-color="#E9521D"/>
<stop offset="1" stop-color="#F6A117"/>
</linearGradient>
<linearGradient id="paint3_linear_392_272" x1="25.7984" y1="35.0039" x2="26.1083" y2="0.407052" gradientUnits="userSpaceOnUse">
<stop stop-color="white"/>
<stop offset="1"/>
</linearGradient>
<linearGradient id="paint4_linear_392_272" x1="25.7984" y1="35.0039" x2="26.1083" y2="0.407052" gradientUnits="userSpaceOnUse">
<stop stop-color="#B94817"/>
<stop offset="1" stop-color="#F6A117"/>
</linearGradient>
</defs>
</svg>
